<?xml version="1.0" encoding="UTF-8"?>
<svg version="1.1" xmlns="http://www.w3.org/2000/svg" width="32" height="32">
<path d="M0 0 C2.33088848 1.52713383 2.89163892 2.71361714 3.875 5.3125 C4.04103779 8.88231246 2.76982962 10.95589306 1 14 C2.98 13.67 4.96 13.34 7 13 C7 15.31 7 17.62 7 20 C5.02 19.67 3.04 19.34 1 19 C1 19.99 1 20.98 1 22 C-0.65 22 -2.3 22 -4 22 C-3.505 22.86625 -3.505 22.86625 -3 23.75 C-2 26 -2 26 -2 30 C-2.99 29.67 -3.98 29.34 -5 29 C-6.1875 25.4375 -6.1875 25.4375 -7 22 C-7.66 22 -8.32 22 -9 22 C-9.2165625 23.1446875 -9.2165625 23.1446875 -9.4375 24.3125 C-10 27 -10 27 -11 30 C-11.99 30 -12.98 30 -14 30 C-13.47731534 27.23723823 -12.89130413 24.6739124 -12 22 C-13.65 22 -15.3 22 -17 22 C-17.06058594 21.35933594 -17.12117188 20.71867187 -17.18359375 20.05859375 C-17.26738281 19.19363281 -17.35117187 18.32867188 -17.4375 17.4375 C-17.52386719 16.52742188 -17.61023438 15.61734375 -17.69921875 14.6796875 C-17.95110029 12.43565198 -18.31779888 10.2757497 -18.75 8.0625 C-19 5 -19 5 -17.875 3.0625 C-15.44310128 1.68442406 -13.75709143 1.78791604 -11 2 C-6.91093862 2 -4.64692548 -0.48405474 0 0 Z M-4 5 C-4 5.99 -4 6.98 -4 8 C-3.34 8 -2.68 8 -2 8 C-2 7.01 -2 6.02 -2 5 C-2.66 5 -3.32 5 -4 5 Z M-14 6 C-14 9 -14 9 -14 9 Z " fill="#161716" transform="translate(22,1)"/>
</svg>
